# xmcd CD database file
#
# Track frame offsets:
#	150
#	13863
#	26343
#	38829
#	51834
#	65052
#	80271
#	96543
#	109428
#	122146
#	136393
#	149090
#	160883
#	174714
#	186515
#	201501
#	212531
#	224439
#	239813
#	254431
#
# Disc length: 3557 seconds
#
# Revision: 0
# Processed by: cddbd v1.5.2PL0 Copyright (c) Steve Scherf et al.
# Submitted via: CDex 1.70beta2
#
DISCID=450de314
DTITLE=Blind Blake - 20 Légendes du Blues CD 20
DYEAR=2008
DGENRE=Blues
TTITLE0=Blind Arthur Breakdown
TTITLE1=You're Gonna Quit Me Baby
TTITLE2=Dry Bone Shuffle
TTITLE3=Southern Rag
TTITLE4=Too Tight Blues
TTITLE5=Georgia Bound
TTITLE6=Depressiopn' S Gone From Me Blues
TTITLE7=Police Dog Blues
TTITLE8=Goodbye Mama Moan
TTITLE9=Pay Day Daddy Blues
TTITLE10=Back Door Slam Blues
TTITLE11=Lead Hearted Blues
TTITLE12=Guitar Chimes
TTITLE13=Hard Pushin' Papa
TTITLE14=Itching Heel
TTITLE15=Playing Policy Blues
TTITLE16=Righteous Blues
TTITLE17=Stingaree Man Blues
TTITLE18=Ain't Gonna Do That No More
TTITLE19=Pocker Woman Blues
EXTD=YEAR: 2008
EXTT0=
EXTT1=
EXTT2=
EXTT3=
EXTT4=
EXTT5=
EXTT6=
EXTT7=
EXTT8=
EXTT9=
EXTT10=
EXTT11=
EXTT12=
EXTT13=
EXTT14=
EXTT15=
EXTT16=
EXTT17=
EXTT18=
EXTT19=
PLAYORDER=
